<svg width="26" height="26" viewBox="0 0 26 26" fill="none" xmlns="http://www.w3.org/2000/svg">
<path d="M8.66683 23.8333C9.26514 23.8333 9.75016 23.3483 9.75016 22.75C9.75016 22.1517 9.26514 21.6667 8.66683 21.6667C8.06852 21.6667 7.5835 22.1517 7.5835 22.75C7.5835 23.3483 8.06852 23.8333 8.66683 23.8333Z" stroke="white" stroke-width="2.16667" stroke-linecap="round" stroke-linejoin="round"/>
<path d="M20.5833 23.8333C21.1816 23.8333 21.6667 23.3483 21.6667 22.75C21.6667 22.1517 21.1816 21.6667 20.5833 21.6667C19.985 21.6667 19.5 22.1517 19.5 22.75C19.5 23.3483 19.985 23.8333 20.5833 23.8333Z" stroke="white" stroke-width="2.16667" stroke-linecap="round" stroke-linejoin="round"/>
<path d="M2.2207 2.22084H4.38737L7.26904 15.6758C7.37475 16.1686 7.64893 16.6091 8.04439 16.9215C8.43985 17.2339 8.93185 17.3987 9.4357 17.3875H20.0307C20.5238 17.3867 21.0019 17.2177 21.386 16.9085C21.7701 16.5993 22.0372 16.1682 22.1432 15.6867L23.9307 7.63751H5.54654" stroke="white" stroke-width="2.16667" stroke-linecap="round" stroke-linejoin="round"/>
</svg>
