<svg width="128" height="128" viewBox="0 0 128 128" fill="none" xmlns="http://www.w3.org/2000/svg">
<path d="M80.2892 44.5319C79.5564 45.2794 79.146 46.2844 79.146 47.3311C79.146 48.3779 79.5564 49.3829 80.2892 50.1304L86.6875 56.5287C87.435 57.2614 88.44 57.6719 89.4867 57.6719C90.5335 57.6719 91.5385 57.2614 92.286 56.5287L107.362 41.4527C109.373 45.8963 109.982 50.8471 109.107 55.6455C108.233 60.4439 105.917 64.8619 102.468 68.3108C99.0196 71.7596 94.6016 74.0755 89.8032 74.9497C85.0049 75.824 80.054 75.2152 75.6104 73.2044L47.9776 100.837C46.3867 102.428 44.229 103.322 41.9792 103.322C39.7293 103.322 37.5716 102.428 35.9807 100.837C34.3898 99.2463 33.4961 97.0886 33.4961 94.8387C33.4961 92.5889 34.3898 90.4312 35.9807 88.8403L63.6135 61.2075C61.6027 56.7639 60.9939 51.813 61.8681 47.0146C62.7424 42.2162 65.0583 37.7982 68.5071 34.3494C71.9559 30.9006 76.3739 28.5847 81.1723 27.7104C85.9707 26.8361 90.9216 27.445 95.3652 29.4558L80.3291 44.4919L80.2892 44.5319Z" stroke="#1F1F1F" stroke-width="4" stroke-linecap="round" stroke-linejoin="round"/>
</svg>
